<svg xmlns="http://www.w3.org/2000/svg" xml:space="preserve" width="266.125" height="80.64">
  <path fill="#FBD277" d="M82.251 55.14 71.216 44.552c-1.045-.992-2.82-.949-3.822.078L52.753 59.896l-5.364 5.592c-.5.516-.762 1.203-.748 1.922.017.729.313 1.399.832 1.901l.633.604.321.306c.137-.109.28-.209.425-.306 2.09-1.378 4.968-1.372 7.077 0 .313.204.61.437.885.7 2.33 2.238 2.594 5.82.742 8.357l.959.927c.521.495 1.211.759 1.935.741.719-.018 1.386-.311 1.879-.826l9.497-9.899 9.61-10.019.9-.939c.497-.52.762-1.202.748-1.926-.016-.719-.312-1.389-.833-1.891zm-26.86 7.937c-.712.019-1.302-.544-1.322-1.256-.014-.705.541-1.299 1.255-1.309.712-.025 1.309.536 1.323 1.242.018.714-.542 1.306-1.256 1.323zm3.349 3.183c-.71.023-1.301-.539-1.318-1.256-.017-.712.544-1.304 1.258-1.323.706-.018 1.297.545 1.317 1.264.018.71-.541 1.304-1.257 1.315zm3.353 3.259c-.709.02-1.3-.543-1.315-1.249-.021-.712.539-1.304 1.254-1.327.709-.02 1.3.543 1.321 1.249.018.717-.546 1.303-1.26 1.327zm3.359 3.261c-.711.018-1.304-.545-1.323-1.263-.017-.706.544-1.298 1.253-1.31.713-.023 1.309.537 1.322 1.249.023.707-.54 1.305-1.252 1.324z"/>
  <path d="M145.222 51.562c-.869 0-1.64.197-2.306.598-.667.406-1.233.866-1.701 1.401.132.569.226 1.216.273 1.947.056.739.076 1.446.076 2.107v12.661h-8.005V57.463c0-2.032-.26-3.519-.78-4.472-.517-.951-1.423-1.43-2.724-1.43-.833 0-1.559.182-2.177.546-.619.373-1.109.825-1.476 1.36v16.809h-8.007v-24.52h7.706v3.204c.77-1.334 1.777-2.287 3.028-2.857 1.249-.559 2.528-.848 3.825-.848 1.603 0 2.932.33 3.986.977 1.049.654 2.038 1.709 2.974 3.172 1.735-2.764 4.456-4.148 8.159-4.148 1.598 0 2.949.338 4.051 1.027 1.102.682 1.994 1.59 2.678 2.73.686 1.129 1.174 2.44 1.477 3.928.301 1.479.451 3.043.451 4.675v12.661h-8.007V57.463c0-2.032-.258-3.519-.776-4.472-.518-.951-1.425-1.429-2.725-1.429zm16.91-12.966c0-1.266.415-2.337 1.254-3.205.833-.868 1.918-1.301 3.252-1.301 1.331 0 2.416.433 3.254 1.301.834.868 1.25 1.939 1.25 3.205 0 1.277-.416 2.339-1.25 3.206-.838.866-1.923 1.301-3.254 1.301-1.334 0-2.419-.435-3.252-1.301-.839-.867-1.254-1.929-1.254-3.206zm.504 31.68v-24.52h8.006v24.521h-8.006zm21.919-7.505c0 .635.135 1.121.398 1.479.268.35.786.527 1.552.527.469 0 1.031-.052 1.706-.152l.25 5.5c-.671.205-1.429.365-2.278.477-.852.119-1.727.178-2.628.178-1.337 0-2.452-.203-3.354-.602-.9-.401-1.619-.936-2.15-1.6-.535-.664-.92-1.42-1.153-2.279-.23-.849-.349-1.726-.349-2.627V34.949h8.007v27.822zm7.655 7.505V34.949h8.006v13.714c.736-1.172 1.684-2.032 2.852-2.576 1.17-.561 2.407-.832 3.703-.832 1.639 0 3.023.338 4.153 1.027 1.136.682 2.063 1.59 2.782 2.73.714 1.129 1.23 2.44 1.547 3.928.318 1.479.479 3.043.479 4.675v12.661h-8.009V57.463c0-2.032-.317-3.519-.952-4.472-.634-.951-1.598-1.43-2.898-1.43-.832 0-1.561.182-2.178.546-.62.373-1.114.825-1.479 1.36v16.809h-8.006zm42.838-2.404c-.766.773-1.812 1.453-3.129 2.029-1.314.588-2.76.877-4.328.877-1.101 0-2.085-.178-2.951-.553-.867-.365-1.594-.859-2.176-1.505-.586-.629-1.038-1.369-1.352-2.22-.318-.858-.477-1.759-.477-2.729 0-2.27.711-3.979 2.125-5.128 1.421-1.147 3.432-1.827 6.033-2.032.964-.066 1.995-.108 3.078-.152 1.082-.027 2.04-.061 2.879-.093v-.8c0-2.678-1.489-4.006-4.457-4.006-1.169 0-2.295.137-3.38.4-1.083.265-2.073.638-2.974 1.098l-1.451-5.553c1.165-.662 2.541-1.207 4.129-1.625 1.586-.416 3.307-.627 5.178-.627 3.436 0 6.119.892 8.055 2.677 1.939 1.786 2.903 4.466 2.903 8.034v14.311h-7.706v-2.403zm-4.355-2.348c.771 0 1.491-.102 2.177-.299.686-.203 1.31-.468 1.881-.797V60.77c-.805.07-1.522.145-2.153.223-.637.084-1.254.161-1.853.227-1.634.197-2.455.971-2.455 2.299 0 .603.211 1.087.627 1.454.416.364 1.008.551 1.776.551zm35.432-3.255c0 1.367-.255 2.593-.773 3.656-.52 1.062-1.249 1.963-2.203 2.676-.952.725-2.073 1.26-3.381 1.625-1.3.375-2.732.553-4.301.553-1.33 0-2.738-.127-4.201-.371-1.47-.257-2.804-.632-4.004-1.123l1.1-5.562c1.036.434 2.178.758 3.427.979 1.256.213 2.349.322 3.28.322.964 0 1.805-.138 2.524-.424.72-.282 1.08-.758 1.08-1.43 0-.604-.32-1.02-.953-1.277-.633-.244-1.585-.601-2.854-1.08-1.031-.363-2.001-.762-2.903-1.213-.899-.451-1.673-.986-2.324-1.607-.653-.621-1.162-1.326-1.526-2.126-.369-.8-.547-1.735-.547-2.806 0-2.662.896-4.635 2.695-5.901 1.805-1.268 4.157-1.903 7.061-1.903 1.535 0 2.933.143 4.199.424 1.268.281 2.487.758 3.656 1.428l-1.102 5.255c-.9-.399-1.853-.73-2.852-.968-1-.256-2.055-.383-3.154-.383-.967 0-1.711.094-2.224.271-.52.187-.777.561-.777 1.131 0 .561.31.978.923 1.226.619.245 1.41.558 2.381.925.733.271 1.551.595 2.451.979.902.383 1.744.876 2.525 1.479.781.595 1.44 1.319 1.976 2.17.536.856.801 1.873.801 3.075z"/>
  <path fill="#BE1E2D" d="M0 27.474h10.019v42.44H0z"/>
  <path fill="#EF4136" d="M0 0h10.019v27.474H0z"/>
  <path fill="#F89823" d="m63.036 10.558-7.377 7.657c1.493 4.293.539 9.253-2.882 12.681l-5.273 5.276-3.509 3.506-3.407 3.577 6.999 6.998 3.585-3.589 8.69-8.686c7.429-7.436 8.476-18.854 3.174-27.42z"/>
  <path fill="#FBB040" d="M62.994 10.479c-.874-1.405-1.906-2.738-3.126-3.959l-.018-.018c-.029-.031-.059-.06-.089-.084-1.182-1.166-2.473-2.165-3.846-3.027C52.414 1.196 48.377 0 44.145 0 39.91 0 35.87 1.196 32.371 3.391c-1.415.879-2.745 1.921-3.958 3.129-1.208 1.208-2.244 2.536-3.129 3.954-2.194 3.5-3.384 7.549-3.387 11.784l-.002 5.006h10.019v-5.006c0-3.271 1.274-6.346 3.585-8.655 2.311-2.31 5.381-3.577 8.647-3.577 3.264 0 6.332 1.267 8.641 3.577l.034.029c1.322 1.346 2.267 2.907 2.84 4.583l7.377-7.657c-.015-.029-.03-.048-.044-.079z"/>
  <path fill="#009444" d="M104.618 44.917c-1.014-3.911-3.185-7.357-6.134-9.959-3.524 3.11-8.13 5.013-13.188 5.013 5.498 0 9.962 4.463 9.962 9.959 0 5.491-4.464 9.966-9.962 9.966h-1.507c-.07.083-.139.166-.215.246l-9.373 9.772h11.096c9.287 0 17.09-6.376 19.321-14.978.418-1.598.664-3.278.664-5.007-.001-1.727-.246-3.403-.664-5.012z"/>
  <path fill="none" d="M48.852 69.914h-.746l.321.306c.137-.11.28-.209.425-.306z"/>
  <path fill="#F15A29" d="m46.155 64.304 4.227-4.408H38.584l12.588-13.231-3.585 3.589-6.999-6.998L15.22 69.914h30.519c-.51-.714-.795-1.565-.813-2.464-.026-1.185.412-2.303 1.229-3.146z"/>
  <path fill="#D2472C" d="m73.312 62.449-2.225-5.095 2.294-2.102c.472-.489.816-1.872.396-2.285-.419-.395-1.794 0-2.257.492l-1.992 2.368L64.28 53.8c-.185-.076-.391-.006-.5.156-.106.167-.081.383.062.525l3.775 3.62-1.911 2.272c-.042.042-.072.078-.101.113l-1.753-.682c-.158-.06-.345 0-.434.143-.087.145-.066.329.053.449l3.27 3.129c.123.125.308.137.449.042.142-.097.194-.288.125-.437l-.726-1.663c.042-.03.085-.078.123-.12l2.196-2.01 3.733 3.576c.144.133.363.149.523.037.166-.111.223-.322.148-.501z"/>
  <path fill="#8DC63F" d="M102.655 10.168C99.979 5.443 95.448 1.919 90.038.591 88.518.222 86.933 0 85.296 0h-1.273c-4.232 0-8.272 1.196-11.776 3.391-1.412.879-2.745 1.921-3.955 3.129-1.211 1.208-2.243 2.536-3.128 3.954-2.196 3.5-3.388 7.549-3.388 11.784l-.007 5.006h10.023v-5.006c0-3.271 1.273-6.346 3.584-8.655 2.307-2.31 5.382-3.577 8.646-3.577 3.263 0 6.333 1.267 8.644 3.577l.034.029c1.321 1.346 1.988 2.537 2.4 4.599l7.768-7.632c0 .001-.143-.328-.213-.431z"/>
  <path fill="#39B54A" d="M104.618 14.979s-.011.004-.029.01c-.371-1.507-1.026-2.981-1.412-3.779-.102-.204-.201-.41-.309-.61L95.1 18.232h.005s-.001.001-.002.001c.102.567.155 1.151.155 1.748 0 1.428-.305 2.787-.849 4.013-1.543 3.499-5.046 5.957-9.114 5.957H80.29v10.021h5.007c5.057 0 9.664-1.903 13.188-5.013 2.949-2.603 5.12-6.048 6.134-9.966.088-.329.158-.664.23-.999.274-1.304.434-2.632.434-4.013-.002-1.731-.247-3.405-.665-5.002z"/>
</svg>