<svg version="1.1" id="Layer_1" xmlns="http://www.w3.org/2000/svg" x="0" y="0" viewBox="0 0 2500 700.7" style="enable-background:new 0 0 2500 700.7" xml:space="preserve"><style>.st0{fill:#f86302}.st1{fill:#009e61}.st2{fill:#ffa076;stroke:#ffa076;stroke-width:.6;stroke-miterlimit:10}.st3{fill:#932d00}</style><path id="path4" class="st0" d="M527.1 492.3v45.3c-3 46.8-34.7 52.9-80 55.9v107.2h306.6V593.5c-45.3-3-77-9.1-80-55.9v-45.3H527.1z"/><path id="path6" class="st1" d="M7.6 303.6h749.1c4.5 0 7.6 4.5 7.6 9.1 0 4.5-3 9.1-7.6 9.1H7.6c-4.5 0-7.6-4.5-7.6-9.1 0-6.1 3-9.1 7.6-9.1"/><path id="path8" class="st1" d="M7.6 347.4h749.1c4.5 0 7.6 4.5 7.6 9.1 0 4.5-3 9.1-7.6 9.1H7.6c-4.5 0-7.6-4.5-7.6-9.1s3-9.1 7.6-9.1"/><path id="path10" class="st1" d="M7.6 391.2h749.1c4.5 0 7.6 4.5 7.6 9.1 0 4.5-3 9.1-7.6 9.1H7.6c-4.5 0-7.6-4.5-7.6-9.1s3-9.1 7.6-9.1"/><path id="path12" class="st1" d="M7.6 436.5h749.1c4.5 0 7.6 4.5 7.6 9.1 0 4.5-3 9.1-7.6 9.1H7.6C3 454.6 0 450 0 445.5c0-6 3-9 7.6-9"/><path id="path14" class="st1" d="M7.6 480.3h749.1c4.5 0 7.6 4.5 7.6 9.1 0 4.5-3 9.1-7.6 9.1H7.6c-4.5 0-7.6-4.5-7.6-9.1 0-6.1 3-9.1 7.6-9.1"/><path id="path16" class="st0" d="M12.1 593.5v107.2h309.6V593.5c-22.7 0-36.2-1.5-45.3-10.6-10.6-7.6-9.1-18.1 1.5-34.7l250.7-368.5V302h146.5V0H496.9l-361 525.6C99.7 581.4 86.1 595 12.1 593.5"/><path id="path18" class="st1" d="M2402.8 326.2c-13.6 0-24.2 6-33.2 18.1-9.1 12.1-16.6 30.2-24.2 55.9-7.6 25.7-9.1 45.3-6 57.4s10.6 18.1 24.2 18.1 24.2-6 33.2-18.1c9.1-12.1 16.6-30.2 24.2-55.9 7.6-25.7 9.1-45.3 6-57.4-3.1-12-10.6-18.1-24.2-18.1m-134.4 74c9.1-31.7 25.7-57.4 51.3-75.5s55.9-27.2 90.6-27.2 60.4 9.1 75.5 27.2c15.1 18.1 18.1 43.8 9.1 75.5-9.1 31.7-25.7 57.4-51.3 75.5-25.7 18.1-55.9 27.2-90.6 27.2s-60.4-9.1-75.5-27.2c-13.7-18.1-16.7-43.8-9.1-75.5z"/><path id="path20" class="st1" d="m2173.2 407.8-1.5-58.9-33.2 58.9h34.7zm-31.7 90.6 7.6-27.2h9.1c7.6 0 12.1 0 13.6-1.5s3-3 3-4.5 0-3 1.5-4.5v-4.5l-1.5-21.1h-52.9l-10.6 18.1c-1.5 3-3 4.5-4.5 6s-1.5 3-1.5 4.5 0 3 3 4.5c1.5 1.5 6 1.5 9.1 1.5h9.1l-7.6 27.2h-87.6l7.6-27.2h7.6c4.5 0 9.1-1.5 13.6-4.5s9.1-7.6 13.6-15.1l90.6-148h71l6 148c0 9.1 1.5 15.1 4.5 18.1 1.5 1.5 6 3 12.1 3h10.6l-7.6 27.2h-119.4z"/><path id="path22" class="st1" d="M1978.4 302c39.3 0 66.5 7.6 80 24.2 15.1 16.6 18.1 40.8 9.1 74s-25.7 57.4-48.3 74-54.4 24.2-93.6 24.2h-105.7l7.6-27.2h10.6c6 0 10.6-1.5 13.6-3s4.5-6 6-13.6v-1.5l28.7-107.2c1.5-7.6 3-12.1 1.5-13.6s-6-3-12.1-3h-9.1l7.6-27.2h104.1zm-58.9 167.7h15.1c13.6 0 25.7-6 34.7-16.6 9.1-10.6 16.6-28.7 24.2-52.9 6-25.7 9.1-42.3 4.5-52.9-3-10.6-12.1-16.6-25.7-16.6h-15.1l-37.7 139z"/><path id="path24" class="st1" d="m1723.2 407.8-1.5-58.9-33.2 58.9h34.7zm-33.3 90.6 7.6-27.2h9.1c7.6 0 12.1 0 13.6-1.5s3-3 3-4.5 0-3 1.5-4.5v-4.5l-1.5-21.1h-52.9l-10.6 18.1c-1.5 3-3 4.5-4.5 6s-1.5 3-1.5 4.5 0 3 3 4.5c1.5 1.5 6 1.5 9.1 1.5h9.1l-7.6 27.2h-87.6l7.6-27.2h7.6c4.5 0 9.1-1.5 13.6-4.5s9.1-7.6 13.6-15.1l90.6-148h71l6 148c0 9.1 1.5 15.1 4.5 18.1 1.5 1.5 6 3 12.1 3h10.6l-7.6 27.2h-119.4z"/><path id="path26" class="st1" d="M1606.9 424.4c-7.6 25.7-21.1 46.8-40.8 60.4-19.6 13.6-43.8 21.1-72.5 21.1-33.2 0-57.4-9.1-71-27.2-13.6-18.1-15.1-43.8-6-77 9.1-31.7 24.2-55.9 48.3-75.5 24.2-19.6 51.3-28.7 83.1-28.7 10.6 0 19.6 1.5 28.7 3 9.1 1.5 16.6 6 22.7 10.6l7.6-10.6h31.7l-21.1 80h-34.7c1.5-18.1 0-33.2-4.5-40.8-4.5-9.1-13.6-12.1-25.7-12.1-13.6 0-25.7 6-34.7 18.1-9.1 12.1-18.1 30.2-24.2 55.9-7.6 27.2-9.1 45.3-6 57.4 3 12.1 12.1 18.1 27.2 18.1 13.6 0 25.7-4.5 36.2-13.6 10.6-9.1 19.6-22.7 24.2-37.8h31.7l-.2-1.3z"/><path id="path28" class="st1" d="m1313.9 407.8-3-60.4-33.2 58.9h36.2v1.5zm-31.7 90.6 7.6-27.2h9.1c7.6 0 12.1 0 13.6-1.5s3-3 3-4.5 0-3 1.5-4.5v-4.5l-1.5-21.1h-52.9l-12.1 19.6c-1.5 3-3 4.5-4.5 6s-1.5 3-1.5 4.5 0 3 3 4.5c1.5 1.5 6 1.5 9.1 1.5h9.1l-7.6 27.2h-87.6l7.6-27.2h7.6c4.5 0 9.1-1.5 13.6-4.5s9.1-7.6 13.6-15.1l90.6-148h71l6 148c0 9.1 1.5 15.1 4.5 18.1 1.5 1.5 6 3 12.1 3h10.6l-7.6 27.2h-117.8v-1.5z"/><path id="path30" class="st1" d="M1091.9 333.8c-10.6 0-19.6 3-27.2 10.6-7.6 7.6-13.6 18.1-16.6 31.7v1.5h-28.7l19.6-74h205.4l-19.6 74h-28.7V376c3-13.6 3-24.2 0-31.7-3-7.6-10.6-10.6-22.7-10.6h-9.1l-31.7 120.8c-1.5 7.6-1.5 12.1 0 13.6s6 3 12.1 3h16.6l-7.6 27.2h-128.4l7.6-27.2h15.1c6 0 10.6-1.5 13.6-3s4.5-6 7.6-15.1l31.7-120.8h-9.1v1.6z"/><path id="path32" class="st1" d="m927.3 407.8-1.5-58.9-33.2 58.9h34.7zm-31.7 90.6 7.6-27.2h9.1c7.6 0 12.1 0 13.6-1.5s3-3 3-4.5 0-3 1.5-4.5v-4.5l-1.5-21.1H876l-10.6 18.1c-1.5 3-3 4.5-4.5 6s-1.5 3-1.5 4.5 0 3 3 4.5c1.5 1.5 6 1.5 9.1 1.5h9.1l-7.6 28.7h-87.6l7.6-27.2h7.6c4.5 0 9.1-1.5 13.6-4.5s9.1-7.6 13.6-15.1l90.6-148h71l6 148c0 9.1 1.5 15.1 4.5 18.1 1.5 1.5 6 3 12.1 3h10.6l-7.6 27.2H895.6v-1.5z"/><path id="polygon34" class="st1" d="M2238.2 283.9h-72.5l10.5-18.1h72.5z"/><g id="g38" transform="translate(-.2 -.3)"><path id="path36" class="st2" d="M33.4 682.9h-7.6v-77H53c60.4 0 99.7-71 101.2-71L509.1 23h146.5v4.5H516.7L163.3 536.4c-1.5 3-40.8 74-105.7 74H33.4v72.5z"/></g><path id="path40" class="st2" d="M660 504.4H539.2v48.3c-3 45.3-33.2 49.8-77 52.9h-3v75.5h6v-71c43.8-3 77-10.6 80-58.9v-42.3H660v-4.5z"/><path id="polyline42" class="st3" d="M675.1 302H657V22.7L675.1 0"/><path id="polygon44" class="st3" d="M528.6 302h146.5v-18.1H543.7z"/><path id="polygon46" class="st3" d="M447 700.7h306.6v-18.1H459.1z"/><path id="polygon48" class="st3" d="M735.5 604.1v95.1l18.1 1.5V593.5z"/><path id="polygon50" class="st3" d="M12.1 700.7h309.6v-18.1h-296z"/><path id="polygon52" style="fill:#af3d04" d="M303.6 604.1v95.1l18.1 1.5V593.5z"/><g id="g58" transform="translate(-.2 -.3)"><path id="polyline54" class="st3" d="M528.8 154.3V180L276.6 550h-15.1"/><path id="path56" class="st3" d="M263 547s-33.2 46.8 40.8 57.4c10.6-6 18.1-10.6 18.1-10.6s-77 0-45.3-43.8c21.1-42.3-13.6-3-13.6-3z"/></g></svg>