<svg xmlns="http://www.w3.org/2000/svg" version="1.1" id="Layer_1" x="0" y="0" viewBox="0 0 221.17 315" style="enable-background:new 0 0 221.17 315" xml:space="preserve"><style>.st0{fill:#ffffff}.st1{fill:#ffffff}</style><path d="M35.66 176.75C16.22 173.35-.02 189.07 0 207.71l.04 49.82c0 5.82 3.77 10.97 9.31 12.74l8.73 2.8-.02-41.13c-.01-6.68 5.53-11.83 12.21-11.81h.26c6.68-.04 12.23 5.09 12.24 11.77l.04 48.27c0 6.18 4.23 11.55 10.23 13.01l7.81 1.9-.08-86.85c-.02-15.05-10.28-28.89-25.11-31.48zM160.4 90.59l-.08-70.68 7.81 1.9c6 1.46 10.23 6.83 10.23 13.01l.04 32.1c.01 6.68 5.56 11.81 12.24 11.77h.26c6.68.02 12.22-5.12 12.21-11.81l-.02-24.96 8.73 2.8c5.54 1.78 9.3 6.93 9.31 12.74l.04 33.65c.02 18.65-16.22 34.36-35.66 30.97-14.83-2.58-25.09-16.43-25.11-31.49z" id="color_index_1" fill="#ffffff"/><path d="m80.9 284.58.06-85.48c0-5.84 3.79-11 9.36-12.76l8.67-2.74-.03 73.24c-.01 6.68 5.53 11.83 12.21 11.81h.26c6.68.04 12.23-5.09 12.24-11.77l.06-119.49 8.02 2.1c5.89 1.54 10 6.87 10 12.97l-.09 131.21c-.02 16.73-13.13 31.06-29.86 31.35-17.03.26-30.92-13.47-30.9-30.44zm104.61-142.52c19.44-3.39 35.68 12.32 35.66 30.97l-.05 85.03a13.397 13.397 0 0 1-9.3 12.74l-8.72 2.8.02-76.34c.01-6.68-5.53-11.83-12.21-11.81h-.26c-6.68-.04-12.23 5.09-12.24 11.77l-.04 82.97a13.4 13.4 0 0 1-10.23 13l-7.8 1.9.08-121.55c0-15.05 10.26-28.89 25.09-31.48zM109.36 0C92.63.29 79.52 14.62 79.5 31.35l-.09 114.68c0 6.09 4.11 11.42 10 12.97l8.02 2.1.06-102.96c.01-6.68 5.56-11.81 12.24-11.77h.26c6.68-.02 12.22 5.12 12.21 11.81l-.03 57.07 8.67-2.74c5.57-1.76 9.36-6.92 9.36-12.76l.06-69.31C140.29 13.45 126.4-.28 109.36 0zm-73.7 154.04C16.22 157.44-.02 141.72 0 123.08l.05-66.13c.01-5.82 3.77-10.97 9.3-12.74l8.72-2.8-.02 57.44c-.01 6.68 5.53 11.83 12.21 11.81h.26c6.68.04 12.23-5.09 12.24-11.77l.04-64.07a13.4 13.4 0 0 1 10.23-13l7.8-1.9-.08 102.65c0 15.04-10.26 28.88-25.09 31.47z" id="color_index_0" fill="#ffffff"/></svg>